<svg width="16" height="16" viewBox="0 0 16 16" fill="none" xmlns="http://www.w3.org/2000/svg">
<circle cx="8" cy="8" r="8" fill="white"/>
<circle cx="8" cy="8" r="7.5" fill="#2473EB"/>
<path d="M9.95157 4.72834C9.90896 4.29865 9.72607 3.96484 9.40292 3.72692C9.07977 3.48899 8.6412 3.37003 8.08722 3.37003C7.7108 3.37003 7.39298 3.4233 7.13374 3.52983C6.87451 3.63281 6.67565 3.77663 6.53715 3.96129C6.40221 4.14595 6.33474 4.35547 6.33474 4.58984C6.32764 4.78516 6.36847 4.95561 6.45725 5.10121C6.54958 5.2468 6.67565 5.37287 6.83545 5.4794C6.99525 5.58239 7.17991 5.67294 7.38943 5.75107C7.59894 5.82564 7.82267 5.88956 8.06059 5.94283L9.04071 6.1772C9.51656 6.28374 9.95335 6.42578 10.3511 6.60334C10.7488 6.78089 11.0933 6.99929 11.3845 7.25852C11.6756 7.51776 11.9011 7.82315 12.0609 8.17472C12.2243 8.52628 12.3078 8.92933 12.3113 9.38388C12.3078 10.0515 12.1373 10.6303 11.7999 11.1204C11.4661 11.6069 10.9832 11.9851 10.3511 12.255C9.72252 12.5213 8.96436 12.6545 8.07657 12.6545C7.19589 12.6545 6.42884 12.5195 5.77544 12.2496C5.12558 11.9798 4.61776 11.5803 4.252 11.0511C3.88978 10.5185 3.6998 9.85973 3.68204 9.07493H5.91393C5.93879 9.4407 6.04355 9.74609 6.2282 9.99112C6.41642 10.2326 6.66677 10.4155 6.97927 10.5398C7.29532 10.6605 7.65221 10.7209 8.04994 10.7209C8.44056 10.7209 8.7797 10.6641 9.06734 10.5504C9.35853 10.4368 9.58403 10.2788 9.74383 10.0763C9.90363 9.87393 9.98353 9.64134 9.98353 9.37855C9.98353 9.13352 9.91073 8.92756 9.76514 8.76065C9.62309 8.59375 9.41357 8.4517 9.13659 8.33452C8.86315 8.21733 8.52757 8.1108 8.12984 8.01491L6.94198 7.71662C6.02224 7.4929 5.29603 7.14311 4.76336 6.66726C4.23069 6.19141 3.96613 5.55043 3.96968 4.74432C3.96613 4.08381 4.14191 3.50675 4.49703 3.01314C4.85569 2.51953 5.34752 2.13423 5.97252 1.85724C6.59752 1.58026 7.30775 1.44176 8.10321 1.44176C8.91286 1.44176 9.61954 1.58026 10.2232 1.85724C10.8305 2.13423 11.3028 2.51953 11.6401 3.01314C11.9775 3.50675 12.1515 4.07848 12.1622 4.72834H9.95157Z" fill="white"/>
</svg>
