<svg width="119" height="40" viewBox="0 0 119 40" fill="none" xmlns="http://www.w3.org/2000/svg">
<path d="M14.6477 14.9205C14.5568 14.0038 14.1667 13.2917 13.4773 12.7841C12.7879 12.2765 11.8523 12.0227 10.6705 12.0227C9.86742 12.0227 9.18939 12.1364 8.63636 12.3636C8.08333 12.5833 7.65909 12.8902 7.36364 13.2841C7.07576 13.678 6.93182 14.125 6.93182 14.625C6.91667 15.0417 7.00379 15.4053 7.19318 15.7159C7.39015 16.0265 7.65909 16.2955 8 16.5227C8.34091 16.7424 8.73485 16.9356 9.18182 17.1023C9.62879 17.2614 10.1061 17.3977 10.6136 17.5114L12.7045 18.0114C13.7197 18.2386 14.6515 18.5417 15.5 18.9205C16.3485 19.2992 17.0833 19.7652 17.7045 20.3182C18.3258 20.8712 18.8068 21.5227 19.1477 22.2727C19.4962 23.0227 19.6742 23.8826 19.6818 24.8523C19.6742 26.2765 19.3106 27.5114 18.5909 28.5568C17.8788 29.5947 16.8485 30.4015 15.5 30.9773C14.1591 31.5455 12.5417 31.8295 10.6477 31.8295C8.76894 31.8295 7.13258 31.5417 5.73864 30.9659C4.35227 30.3902 3.26894 29.5379 2.48864 28.4091C1.71591 27.2727 1.31061 25.8674 1.27273 24.1932H6.03409C6.08712 24.9735 6.31061 25.625 6.70455 26.1477C7.10606 26.6629 7.64015 27.053 8.30682 27.3182C8.98106 27.5758 9.74242 27.7045 10.5909 27.7045C11.4242 27.7045 12.1477 27.5833 12.7614 27.3409C13.3826 27.0985 13.8636 26.7614 14.2045 26.3295C14.5455 25.8977 14.7159 25.4015 14.7159 24.8409C14.7159 24.3182 14.5606 23.8788 14.25 23.5227C13.947 23.1667 13.5 22.8636 12.9091 22.6136C12.3258 22.3636 11.6098 22.1364 10.7614 21.9318L8.22727 21.2955C6.26515 20.8182 4.71591 20.072 3.57955 19.0568C2.44318 18.0417 1.87879 16.6742 1.88636 14.9545C1.87879 13.5455 2.25379 12.3144 3.01136 11.2614C3.77652 10.2083 4.82576 9.38636 6.15909 8.79545C7.49242 8.20454 9.00758 7.90909 10.7045 7.90909C12.4318 7.90909 13.9394 8.20454 15.2273 8.79545C16.5227 9.38636 17.5303 10.2083 18.25 11.2614C18.9697 12.3144 19.3409 13.5341 19.3636 14.9205H14.6477ZM22.9006 31.5V14.0455H27.7415V31.5H22.9006ZM25.3324 11.7955C24.6127 11.7955 23.9953 11.5568 23.4801 11.0795C22.9725 10.5947 22.7188 10.0152 22.7188 9.34091C22.7188 8.67424 22.9725 8.10227 23.4801 7.625C23.9953 7.14015 24.6127 6.89773 25.3324 6.89773C26.0521 6.89773 26.6657 7.14015 27.1733 7.625C27.6884 8.10227 27.946 8.67424 27.946 9.34091C27.946 10.0152 27.6884 10.5947 27.1733 11.0795C26.6657 11.5568 26.0521 11.7955 25.3324 11.7955ZM40.9034 14.0455V17.6818H30.392V14.0455H40.9034ZM32.7784 9.86364H37.6193V26.1364C37.6193 26.5833 37.6875 26.9318 37.8239 27.1818C37.9602 27.4242 38.1496 27.5947 38.392 27.6932C38.642 27.7917 38.9299 27.8409 39.2557 27.8409C39.483 27.8409 39.7102 27.822 39.9375 27.7841C40.1648 27.7386 40.339 27.7045 40.4602 27.6818L41.2216 31.2841C40.9792 31.3598 40.6383 31.447 40.1989 31.5455C39.7595 31.6515 39.2254 31.7159 38.5966 31.7386C37.4299 31.7841 36.4072 31.6288 35.5284 31.2727C34.6572 30.9167 33.9792 30.3636 33.4943 29.6136C33.0095 28.8636 32.7708 27.9167 32.7784 26.7727V9.86364ZM51.8239 31.8409C50.0284 31.8409 48.483 31.4773 47.1875 30.75C45.8996 30.0152 44.9072 28.9773 44.2102 27.6364C43.5133 26.2879 43.1648 24.6932 43.1648 22.8523C43.1648 21.0568 43.5133 19.4811 44.2102 18.125C44.9072 16.7689 45.8883 15.7121 47.1534 14.9545C48.4261 14.197 49.9186 13.8182 51.6307 13.8182C52.7822 13.8182 53.8542 14.0038 54.8466 14.375C55.8466 14.7386 56.7178 15.2879 57.4602 16.0227C58.2102 16.7576 58.7936 17.6818 59.2102 18.7955C59.6269 19.9015 59.8352 21.197 59.8352 22.6818V24.0114H45.0966V21.0114H55.2784C55.2784 20.3144 55.1269 19.697 54.8239 19.1591C54.5208 18.6212 54.1004 18.2008 53.5625 17.8977C53.0322 17.5871 52.4148 17.4318 51.7102 17.4318C50.9754 17.4318 50.3239 17.6023 49.7557 17.9432C49.1951 18.2765 48.7557 18.7273 48.4375 19.2955C48.1193 19.8561 47.9564 20.4811 47.9489 21.1705V24.0227C47.9489 24.8864 48.108 25.6326 48.4261 26.2614C48.7519 26.8902 49.2102 27.375 49.8011 27.7159C50.392 28.0568 51.0928 28.2273 51.9034 28.2273C52.4413 28.2273 52.9337 28.1515 53.3807 28C53.8277 27.8485 54.2102 27.6212 54.5284 27.3182C54.8466 27.0152 55.089 26.6439 55.2557 26.2045L59.733 26.5C59.5057 27.5758 59.0398 28.5152 58.3352 29.3182C57.6383 30.1136 56.7367 30.7348 55.6307 31.1818C54.5322 31.6212 53.2633 31.8409 51.8239 31.8409Z" fill="white"/>
<path d="M75.7102 14.9205C75.6193 14.0038 75.2292 13.2917 74.5398 12.7841C73.8504 12.2765 72.9148 12.0227 71.733 12.0227C70.9299 12.0227 70.2519 12.1364 69.6989 12.3636C69.1458 12.5833 68.7216 12.8902 68.4261 13.2841C68.1383 13.678 67.9943 14.125 67.9943 14.625C67.9792 15.0417 68.0663 15.4053 68.2557 15.7159C68.4527 16.0265 68.7216 16.2955 69.0625 16.5227C69.4034 16.7424 69.7973 16.9356 70.2443 17.1023C70.6913 17.2614 71.1686 17.3977 71.6761 17.5114L73.767 18.0114C74.7822 18.2386 75.714 18.5417 76.5625 18.9205C77.411 19.2992 78.1458 19.7652 78.767 20.3182C79.3883 20.8712 79.8693 21.5227 80.2102 22.2727C80.5587 23.0227 80.7367 23.8826 80.7443 24.8523C80.7367 26.2765 80.3731 27.5114 79.6534 28.5568C78.9413 29.5947 77.911 30.4015 76.5625 30.9773C75.2216 31.5455 73.6042 31.8295 71.7102 31.8295C69.8314 31.8295 68.1951 31.5417 66.8011 30.9659C65.4148 30.3902 64.3314 29.5379 63.5511 28.4091C62.7784 27.2727 62.3731 25.8674 62.3352 24.1932H67.0966C67.1496 24.9735 67.3731 25.625 67.767 26.1477C68.1686 26.6629 68.7027 27.053 69.3693 27.3182C70.0436 27.5758 70.8049 27.7045 71.6534 27.7045C72.4867 27.7045 73.2102 27.5833 73.8239 27.3409C74.4451 27.0985 74.9261 26.7614 75.267 26.3295C75.608 25.8977 75.7784 25.4015 75.7784 24.8409C75.7784 24.3182 75.6231 23.8788 75.3125 23.5227C75.0095 23.1667 74.5625 22.8636 73.9716 22.6136C73.3883 22.3636 72.6723 22.1364 71.8239 21.9318L69.2898 21.2955C67.3277 20.8182 65.7784 20.072 64.642 19.0568C63.5057 18.0417 62.9413 16.6742 62.9489 14.9545C62.9413 13.5455 63.3163 12.3144 64.0739 11.2614C64.839 10.2083 65.8883 9.38636 67.2216 8.79545C68.5549 8.20454 70.0701 7.90909 71.767 7.90909C73.4943 7.90909 75.0019 8.20454 76.2898 8.79545C77.5852 9.38636 78.5928 10.2083 79.3125 11.2614C80.0322 12.3144 80.4034 13.5341 80.4261 14.9205H75.7102ZM86.9517 38.0455C86.3381 38.0455 85.7623 37.9962 85.2244 37.8977C84.6941 37.8068 84.2547 37.6894 83.9062 37.5455L84.9972 33.9318C85.5653 34.1061 86.0767 34.2008 86.5312 34.2159C86.9934 34.2311 87.3911 34.125 87.7244 33.8977C88.0653 33.6705 88.3419 33.2841 88.554 32.7386L88.8381 32L82.5767 14.0455H87.6676L91.2812 26.8636H91.4631L95.1108 14.0455H100.236L93.4517 33.3864C93.1259 34.3258 92.6828 35.1439 92.1222 35.8409C91.5691 36.5455 90.8684 37.0871 90.0199 37.4659C89.1714 37.8523 88.1487 38.0455 86.9517 38.0455ZM117.236 19.0227L112.804 19.2955C112.728 18.9167 112.565 18.5758 112.315 18.2727C112.065 17.9621 111.736 17.7159 111.327 17.5341C110.925 17.3447 110.444 17.25 109.884 17.25C109.134 17.25 108.501 17.4091 107.986 17.7273C107.471 18.0379 107.213 18.4545 107.213 18.9773C107.213 19.3939 107.38 19.7462 107.713 20.0341C108.046 20.322 108.618 20.553 109.429 20.7273L112.588 21.3636C114.285 21.7121 115.55 22.2727 116.384 23.0455C117.217 23.8182 117.634 24.8333 117.634 26.0909C117.634 27.2348 117.296 28.2386 116.622 29.1023C115.955 29.9659 115.039 30.6402 113.872 31.125C112.713 31.6023 111.376 31.8409 109.861 31.8409C107.55 31.8409 105.709 31.3598 104.338 30.3977C102.974 29.428 102.175 28.1098 101.94 26.4432L106.702 26.1932C106.846 26.8977 107.194 27.4356 107.747 27.8068C108.3 28.1705 109.009 28.3523 109.872 28.3523C110.721 28.3523 111.402 28.1894 111.918 27.8636C112.44 27.5303 112.705 27.1023 112.713 26.5795C112.705 26.1402 112.52 25.7803 112.156 25.5C111.793 25.2121 111.232 24.9924 110.474 24.8409L107.452 24.2386C105.747 23.8977 104.478 23.3068 103.645 22.4659C102.819 21.625 102.406 20.553 102.406 19.25C102.406 18.1288 102.709 17.1629 103.315 16.3523C103.929 15.5417 104.789 14.9167 105.895 14.4773C107.009 14.0379 108.312 13.8182 109.804 13.8182C112.009 13.8182 113.743 14.2841 115.009 15.2159C116.281 16.1477 117.024 17.4167 117.236 19.0227Z" fill="#B4CFF8"/>
</svg>
